<svg id="checkmark" xmlns="http://www.w3.org/2000/svg" width="36.001" height="36" viewBox="0 0 36.001 36">
  <path id="Path_916" data-name="Path 916" d="M144.152,51.913a1,1,0,0,1-.71-.3L137.4,45.571a1.009,1.009,0,1,1,1.427-1.427l5.337,5.337L161.737,31.9a1.009,1.009,0,1,1,1.427,1.427l-18.3,18.295A1,1,0,0,1,144.152,51.913Z" transform="translate(-127.529 -29.377)" fill="#021a53"/>
  <path id="Path_917" data-name="Path 917" d="M33.637,9.289h0a.783.783,0,0,0-.169.949A16.474,16.474,0,1,1,28.856,4.86a.781.781,0,0,0,.914.014h0a.78.78,0,0,0,.021-1.266,18.017,18.017,0,1,0,5.055,5.9A.779.779,0,0,0,33.637,9.289Z" transform="translate(-0.977 0.014)" fill="#021a53"/>
</svg>
