<svg id="copy" xmlns="http://www.w3.org/2000/svg" width="36" height="36" viewBox="0 0 36 36">
  <g id="Group_921" data-name="Group 921">
    <g id="Group_920" data-name="Group 920">
      <path id="Path_938" data-name="Path 938" d="M123,96H98.25A2.25,2.25,0,0,0,96,98.25V123a2.25,2.25,0,0,0,2.25,2.25H123a2.25,2.25,0,0,0,2.25-2.25V98.25A2.25,2.25,0,0,0,123,96Zm0,27H98.25V98.25H123Z" transform="translate(-89.25 -89.25)" fill="#021a53"/>
      <path id="Path_939" data-name="Path 939" d="M2.25,2.25H27V4.5h2.25V2.25A2.25,2.25,0,0,0,27,0H2.25A2.25,2.25,0,0,0,0,2.25V27a2.25,2.25,0,0,0,2.25,2.25H4.5V27H2.25Z" fill="#021a53"/>
    </g>
  </g>
</svg>
