<svg xmlns="http://www.w3.org/2000/svg" width="31.325" height="36.002" viewBox="0 0 31.325 36.002">
  <g id="delete" transform="translate(0.003 0.002)">
    <path id="Path_950" data-name="Path 950" d="M223.383,154.7a.985.985,0,0,0-.985.985V174.3a.985.985,0,0,0,1.97,0V155.688A.985.985,0,0,0,223.383,154.7Zm0,0" transform="translate(-202.424 -145.52)" fill="#021a53"/>
    <path id="Path_951" data-name="Path 951" d="M105.383,154.7a.985.985,0,0,0-.985.985V174.3a.985.985,0,0,0,1.97,0V155.688A.985.985,0,0,0,105.383,154.7Zm0,0" transform="translate(-95.023 -145.52)" fill="#021a53"/>
    <path id="Path_952" data-name="Path 952" d="M2.562,10.716V31.489A4.485,4.485,0,0,0,3.887,34.7,4.6,4.6,0,0,0,7.114,36H24.2a4.6,4.6,0,0,0,3.227-1.3,4.485,4.485,0,0,0,1.325-3.208V10.716a3.234,3.234,0,0,0,2.536-3.53,3.38,3.38,0,0,0-3.421-2.8H23.246V3.329A3.2,3.2,0,0,0,22.2.966,3.683,3.683,0,0,0,19.669,0h-8.02A3.683,3.683,0,0,0,9.114.966,3.2,3.2,0,0,0,8.072,3.329V4.383H3.447a3.38,3.38,0,0,0-3.421,2.8,3.234,3.234,0,0,0,2.536,3.53ZM24.2,34.314H7.114a2.752,2.752,0,0,1-2.746-2.824v-20.7H26.95v20.7A2.752,2.752,0,0,1,24.2,34.314ZM9.878,3.329a1.569,1.569,0,0,1,.513-1.171,1.807,1.807,0,0,1,1.258-.473h8.02a1.807,1.807,0,0,1,1.258.473,1.569,1.569,0,0,1,.513,1.171V4.383H9.878ZM3.447,6.069H27.871A1.574,1.574,0,0,1,29.5,7.587,1.574,1.574,0,0,1,27.871,9.1H3.447A1.574,1.574,0,0,1,1.821,7.587,1.574,1.574,0,0,1,3.447,6.069Zm0,0" transform="translate(0 0)" fill="#021a53"/>
    <path id="Path_953" data-name="Path 953" d="M164.383,154.7a.985.985,0,0,0-.985.985V174.3a.985.985,0,0,0,1.97,0V155.688A.985.985,0,0,0,164.383,154.7Zm0,0" transform="translate(-148.724 -145.52)" fill="#021a53"/>
  </g>
</svg>
