<svg id="info" xmlns="http://www.w3.org/2000/svg" width="36.116" height="36" viewBox="0 0 36.116 36">
  <path id="Path_914" data-name="Path 914" d="M18.058,0A18,18,0,1,0,36.116,18,18.046,18.046,0,0,0,18.058,0Zm0,34.439A16.439,16.439,0,1,1,34.55,18,16.481,16.481,0,0,1,18.058,34.439Z" fill="#021a53"/>
  <path id="Path_915" data-name="Path 915" d="M237.69,210.778a1.387,1.387,0,0,1-1.39-1.389v-11.1a1.39,1.39,0,0,1,2.779,0v11.1A1.387,1.387,0,0,1,237.69,210.778Z" transform="translate(-219.632 -183.076)" fill="#021a53"/>
  <ellipse id="Ellipse_44" data-name="Ellipse 44" cx="1.39" cy="1.389" rx="1.39" ry="1.389" transform="translate(16.669 8.302)" fill="#021a53"/>
</svg>
