<svg id="merge_1_" data-name="merge (1)" xmlns="http://www.w3.org/2000/svg" width="35.993" height="36" viewBox="0 0 35.993 36">
  <path id="Path_927" data-name="Path 927" d="M280.2,21.3H266.7V37.05h10.5a.752.752,0,1,1,0,1.5H266.7V54.3h13.5a2.257,2.257,0,0,0,2.25-2.25V23.55A2.257,2.257,0,0,0,280.2,21.3Z" transform="translate(-247.947 -19.802)" fill="rgba(0,0,0,0)"/>
  <path id="Path_928" data-name="Path 928" d="M26.552,38.555a.752.752,0,1,1,0-1.5h10.5V21.3H23.55a2.257,2.257,0,0,0-2.25,2.25v28.5a2.257,2.257,0,0,0,2.25,2.25h13.5V38.548h-10.5Z" transform="translate(-19.803 -19.802)" fill="rgba(0,0,0,0)"/>
  <path id="Path_929" data-name="Path 929" d="M276.7,186.506c0-.007,0-.007.007-.014s.007-.035.014-.056.007-.014.007-.021.014-.035.021-.049.007-.014.007-.021.014-.035.021-.049a.025.025,0,0,1,.007-.014.147.147,0,0,1,.028-.042c.007-.007.007-.014.014-.021a.154.154,0,0,1,.028-.035c.014-.014.021-.028.035-.042l.014-.014,4.486-4.486a.751.751,0,1,1,1.076,1.048l-3.22,3.22h7.938a.753.753,0,0,1,.752.752h0a.753.753,0,0,1-.752.752h-7.938l3.22,3.22a.749.749,0,0,1-.534,1.28.756.756,0,0,1-.534-.218l-4.5-4.5A.793.793,0,0,1,276.7,186.506Z" transform="translate(-255.228 -168.654)" fill="#021a53"/>
  <path id="Path_930" data-name="Path 930" d="M76.052,185.85h7.931c.007,0,.007-.007,0-.007l-3.192-3.192a.767.767,0,0,1-.063-1.027.745.745,0,0,1,1.1-.049l4.5,4.5.014.014a.187.187,0,0,1,.035.042.153.153,0,0,0,.028.035c.007.007.007.014.014.021s.021.028.028.042a.025.025,0,0,0,.007.014c.007.014.014.035.021.049s.007.014.007.021.014.035.021.049.007.014.007.021.007.035.014.056,0,.007.007.014a.759.759,0,0,1-.2.682l-4.5,4.5a.744.744,0,0,1-.534.218.717.717,0,0,1-.527-.218.747.747,0,0,1,0-1.062l3.213-3.213v-.007H76.052a.753.753,0,0,1-.752-.752h0A.753.753,0,0,1,76.052,185.85Z" transform="translate(-72.006 -168.603)" fill="#021a53"/>
  <path id="Path_931" data-name="Path 931" d="M32.252,0H3.748A3.751,3.751,0,0,0,0,3.748v28.5A3.752,3.752,0,0,0,3.748,36h28.5a3.751,3.751,0,0,0,3.748-3.748V3.748A3.74,3.74,0,0,0,32.252,0ZM3.748,34.5a2.257,2.257,0,0,1-2.25-2.25V3.748A2.257,2.257,0,0,1,3.748,1.5h13.5v33H3.748ZM34.5,32.252a2.257,2.257,0,0,1-2.25,2.25h-13.5V1.5h13.5a2.257,2.257,0,0,1,2.25,2.25Z" fill="#021a53"/>
</svg>
