<svg id="remove" xmlns="http://www.w3.org/2000/svg" width="36" height="36" viewBox="0 0 36 36">
  <path id="Path_935" data-name="Path 935" d="M18,0A18,18,0,1,0,36,18,18.017,18.017,0,0,0,18,0Zm0,34.439A16.439,16.439,0,1,1,34.439,18,16.455,16.455,0,0,1,18,34.439Z" fill="#021a53"/>
  <path id="Path_936" data-name="Path 936" d="M161.971,174.234a1.125,1.125,0,0,1-.795-1.92l11.137-11.137a1.124,1.124,0,0,1,1.589,1.589L162.766,173.9A1.124,1.124,0,0,1,161.971,174.234Z" transform="translate(-149.54 -149.54)" fill="#021a53"/>
  <path id="Path_937" data-name="Path 937" d="M173.039,174.164a1.124,1.124,0,0,1-.795-.33L161.107,162.7a1.124,1.124,0,0,1,1.589-1.589l11.137,11.137a1.125,1.125,0,0,1-.795,1.92Z" transform="translate(-149.471 -149.471)" fill="#021a53"/>
</svg>
