<svg xmlns="http://www.w3.org/2000/svg" width="30.351" height="35" viewBox="0 0 30.351 35">
  <g id="Page-1" transform="translate(-0.004 -0.024)">
    <g id="_018---Scissors" data-name="018---Scissors" transform="translate(0.004 0.024)">
      <path id="Shape" d="M8.992,23.052c-2.84-1.508-6.507-.194-8.173,2.928a6.729,6.729,0,0,0-.628,4.787A5.546,5.546,0,0,0,2.962,34.4a5.38,5.38,0,0,0,2.537.63,5.908,5.908,0,0,0,2.018-.364,6.718,6.718,0,0,0,3.613-3.194l4.05-7.623,4.05,7.618a6.725,6.725,0,0,0,3.612,3.2,5.885,5.885,0,0,0,2.017.365,5.385,5.385,0,0,0,2.539-.632,5.546,5.546,0,0,0,2.769-3.629,6.724,6.724,0,0,0-.628-4.782c-1.663-3.125-5.328-4.437-8.173-2.929l-.515.274L8.8.647A1.168,1.168,0,0,0,7.22.165,4.032,4.032,0,0,0,5.236,2.576a4.034,4.034,0,0,0,.3,3.116L12.2,18.246,9.5,23.325ZM6.348,2.917A2.879,2.879,0,0,1,7.766,1.2L20.1,24.39a.584.584,0,0,0,.345.285.592.592,0,0,0,.444-.043l1.031-.548c2.274-1.211,5.231-.112,6.59,2.447a5.557,5.557,0,0,1,.525,3.952,4.306,4.306,0,0,1-5.794,3.081,5.558,5.558,0,0,1-2.981-2.647L6.559,5.143a2.884,2.884,0,0,1-.211-2.226ZM9.915,24.675a.584.584,0,0,0,.345-.284l2.6-4.9L14.52,22.6,10.1,30.918a5.552,5.552,0,0,1-2.982,2.644,4.309,4.309,0,0,1-5.8-3.078,5.561,5.561,0,0,1,.525-3.954c1.364-2.554,4.32-3.651,6.6-2.445l1.027.549a.584.584,0,0,0,.442.041Z" transform="translate(-0.004 -0.026)" fill="#021a53"/>
      <path id="Shape-2" data-name="Shape" d="M9.556,42.742a3.252,3.252,0,0,0-2.8-.087,4.444,4.444,0,0,0-2.213,2.051A3.835,3.835,0,0,0,5.718,49.96a3.079,3.079,0,0,0,1.455.36,3.561,3.561,0,0,0,1.343-.273A4.44,4.44,0,0,0,10.729,48l1.1-2.061a1.751,1.751,0,0,0-.723-2.369ZM10.8,45.384,9.7,47.446a3.277,3.277,0,0,1-1.623,1.518,2.107,2.107,0,0,1-1.81-.037,2.679,2.679,0,0,1-.69-3.675A3.277,3.277,0,0,1,7.2,43.735a2.39,2.39,0,0,1,.9-.185,1.919,1.919,0,0,1,.908.222l1.547.822a.584.584,0,0,1,.241.792Z" transform="translate(-1.667 -17.655)" fill="#021a53"/>
      <path id="Shape-3" data-name="Shape" d="M30.252,15.649a1.168,1.168,0,0,0,1.03-.619l4.966-9.34a4.048,4.048,0,0,0,.3-3.111,4.038,4.038,0,0,0-2-2.422,1.163,1.163,0,0,0-1.569.491L27.569,10.824a1.168,1.168,0,0,0,0,1.095l1.651,3.111a1.168,1.168,0,0,0,1.032.62ZM28.6,11.371,34.01,1.192a2.925,2.925,0,0,1,1.206,3.95l-4.962,9.34v0Z" transform="translate(-11.421 -0.024)" fill="#021a53"/>
      <path id="Shape-4" data-name="Shape" d="M35.545,48a4.445,4.445,0,0,0,2.213,2.05,3.561,3.561,0,0,0,1.343.273,3.078,3.078,0,0,0,1.455-.36,3.254,3.254,0,0,0,1.635-2.271,4.592,4.592,0,0,0-2.675-5.031,3.251,3.251,0,0,0-2.8.086l-1.546.822a1.751,1.751,0,0,0-.724,2.369Zm-.066-2.611a.584.584,0,0,1,.242-.789l1.546-.822a2.1,2.1,0,0,1,1.81-.037,3.425,3.425,0,0,1,1.971,3.711A2,2,0,0,1,38.2,48.967a3.276,3.276,0,0,1-1.623-1.518Z" transform="translate(-14.256 -17.655)" fill="#021a53"/>
    </g>
  </g>
</svg>
