<svg id="settings" xmlns="http://www.w3.org/2000/svg" width="34.855" height="36" viewBox="0 0 34.855 36">
  <g id="Group_902" data-name="Group 902">
    <g id="Group_901" data-name="Group 901">
      <path id="Path_908" data-name="Path 908" d="M40.957,21.946l-3.29-2.587A12.689,12.689,0,0,0,37.745,18a13.1,13.1,0,0,0-.078-1.359l3.293-2.589a1.627,1.627,0,0,0,.389-2.067L37.928,6.032a1.609,1.609,0,0,0-1.979-.716L32.067,6.884a13.224,13.224,0,0,0-2.33-1.36l-.591-4.141A1.587,1.587,0,0,0,27.566,0h-6.86a1.584,1.584,0,0,0-1.579,1.367l-.592,4.157a13.709,13.709,0,0,0-2.327,1.362L12.315,5.313a1.582,1.582,0,0,0-1.964.7L6.925,11.979a1.615,1.615,0,0,0,.388,2.076l3.29,2.586A13.181,13.181,0,0,0,10.525,18c0,.413.025.852.075,1.359L7.307,21.95a1.63,1.63,0,0,0-.388,2.067L10.34,29.97a1.611,1.611,0,0,0,1.979.715L16.2,29.118a13.423,13.423,0,0,0,2.331,1.36l.591,4.14A1.587,1.587,0,0,0,20.7,36h6.86a1.584,1.584,0,0,0,1.579-1.367l.592-4.155a13.709,13.709,0,0,0,2.327-1.362l3.893,1.572a1.586,1.586,0,0,0,1.964-.7L41.358,24A1.628,1.628,0,0,0,40.957,21.946Zm-.9,1.32L36.5,29.293l-4.27-1.725a.745.745,0,0,0-.725.1,12.338,12.338,0,0,1-2.734,1.6.749.749,0,0,0-.456.588L27.564,34.5l-6.96-.08-.652-4.571a.752.752,0,0,0-.456-.588,11.867,11.867,0,0,1-2.728-1.592.74.74,0,0,0-.455-.156.727.727,0,0,0-.279.054l-4.392,1.666L8.221,23.281a.127.127,0,0,1,.01-.154l3.62-2.845a.754.754,0,0,0,.28-.684,12.727,12.727,0,0,1-.115-1.6,13.031,13.031,0,0,1,.115-1.6.752.752,0,0,0-.28-.684L8.214,12.735l3.552-6.027,4.27,1.725a.74.74,0,0,0,.726-.1,12.247,12.247,0,0,1,2.734-1.6.752.752,0,0,0,.455-.588L20.705,1.5l6.962.081.65,4.572a.752.752,0,0,0,.456.588A11.822,11.822,0,0,1,31.5,8.333a.737.737,0,0,0,.732.1l4.392-1.666,3.421,5.953a.125.125,0,0,1-.01.153l-3.62,2.845a.752.752,0,0,0-.28.684,12.83,12.83,0,0,1,.115,1.6,12.809,12.809,0,0,1-.115,1.6.754.754,0,0,0,.28.684l3.615,2.844A.119.119,0,0,1,40.055,23.266Z" transform="translate(-6.705)" fill="#021a53"/>
      <path id="Path_909" data-name="Path 909" d="M156.809,149.333a7.518,7.518,0,1,0,7.457,7.518A7.5,7.5,0,0,0,156.809,149.333Zm0,13.533a6.015,6.015,0,1,1,5.966-6.014A6,6,0,0,1,156.809,162.866Z" transform="translate(-139.38 -138.851)" fill="#021a53"/>
    </g>
  </g>
</svg>
